<svg width="400" height="236" viewBox="0 0 400 236" fill="none" xmlns="http://www.w3.org/2000/svg">
<mask id="mask0_206_2" style="mask-type:alpha" maskUnits="userSpaceOnUse" x="0" y="0" width="400" height="236">
<rect width="400" height="235.294" fill="#0063F5"/>
</mask>
<g mask="url(#mask0_206_2)">
<path d="M400 0H0V235.294H400V0Z" fill="url(#paint0_linear_206_2)"/>
<path d="M307.698 188.401L290.443 158.514C306.981 148.967 312.623 127.91 303.075 111.373L332.961 94.1181C352.057 127.192 340.673 169.363 307.698 188.401Z" fill="url(#paint1_linear_206_2)"/>
<path d="M307.699 188.401L290.444 158.514C273.907 168.062 252.85 162.42 243.302 145.883L213.416 163.138C232.511 196.212 274.724 207.439 307.699 188.401Z" fill="url(#paint2_linear_206_2)"/>
<path d="M436.491 273.437L406.604 290.692C397.056 274.155 376 268.512 359.463 278.06L342.208 248.174C375.183 229.136 417.453 240.462 436.491 273.437Z" fill="url(#paint3_linear_206_2)"/>
<path d="M295.067 235.542L265.18 252.797C255.633 236.26 234.576 230.617 218.039 240.165L200.784 210.279C233.759 191.241 276.029 202.567 295.067 235.542Z" fill="url(#paint4_linear_206_2)" fill-opacity="0.75"/>
<path d="M354.84 201.032L384.726 183.777C375.179 167.24 380.821 146.184 397.358 136.636L380.103 106.749C347.128 125.787 335.802 168.057 354.84 201.032Z" fill="url(#paint5_linear_206_2)" fill-opacity="0.75"/>
<path d="M449.122 226.295L431.867 196.408C415.33 205.956 394.274 200.314 384.726 183.777L354.84 201.032C373.935 234.106 416.148 245.333 449.122 226.295Z" fill="url(#paint6_linear_206_2)" fill-opacity="0.75"/>
<path d="M30.0516 -9.24684L12.7967 -39.1332C-3.74044 -29.5855 -24.7969 -35.2275 -34.3446 -51.7647L-64.231 -34.5098C-45.1355 -1.43552 -2.92304 9.79107 30.0516 -9.24684Z" fill="url(#paint7_linear_206_2)"/>
<path d="M39.2984 144.808L69.1847 127.553C59.637 111.016 65.2791 89.9599 81.8162 80.4122L64.5613 50.5258C31.5867 69.5637 20.2605 111.834 39.2984 144.808Z" fill="url(#paint8_linear_206_2)"/>
<path d="M158.844 75.7888L128.957 93.0437C119.409 76.5066 98.3531 70.8645 81.8159 80.4122L64.561 50.5259C97.5357 31.488 139.806 42.8142 158.844 75.7888Z" fill="url(#paint9_linear_206_2)"/>
<path d="M17.4197 37.8945L-12.4667 55.1494C-2.91895 71.6865 -8.561 92.743 -25.0981 102.291L-7.84322 132.177C25.1314 113.139 36.5151 70.9687 17.4197 37.8945Z" fill="url(#paint10_linear_206_2)"/>
<path d="M17.4197 37.8943L-12.4666 55.1492C-22.0143 38.6121 -43.0708 32.97 -59.6079 42.5177L-76.8628 12.6313C-43.8882 -6.40656 -1.61816 4.91965 17.4197 37.8943Z" fill="url(#paint11_linear_206_2)"/>
<path d="M77.1929 3.38455L107.079 -13.8704C97.5316 -30.4075 103.174 -51.4639 119.711 -61.0116L102.456 -90.898C69.4812 -71.8601 58.155 -29.5901 77.1929 3.38455Z" fill="url(#paint12_linear_206_2)"/>
<path d="M171.475 28.6477L154.221 -1.23867C137.683 8.30904 116.627 2.66699 107.079 -13.8701L77.1929 3.38477C96.2883 36.459 138.501 47.6856 171.475 28.6477Z" fill="url(#paint13_linear_206_2)"/>
</g>
<defs>
<linearGradient id="paint0_linear_206_2" x1="0" y1="0" x2="400" y2="0" gradientUnits="userSpaceOnUse">
<stop stop-color="#1A58F7"/>
<stop offset="1" stop-color="#001E6B"/>
</linearGradient>
<linearGradient id="paint1_linear_206_2" x1="303.075" y1="111.373" x2="337.585" y2="171.146" gradientUnits="userSpaceOnUse">
<stop stop-color="#0465F6" stop-opacity="0.3"/>
<stop offset="1" stop-color="white" stop-opacity="0"/>
</linearGradient>
<linearGradient id="paint2_linear_206_2" x1="243.302" y1="145.883" x2="277.812" y2="205.656" gradientUnits="userSpaceOnUse">
<stop stop-color="#0465F6" stop-opacity="0.3"/>
<stop offset="1" stop-color="white" stop-opacity="0"/>
</linearGradient>
<linearGradient id="paint3_linear_206_2" x1="372.094" y1="230.919" x2="406.604" y2="290.692" gradientUnits="userSpaceOnUse">
<stop stop-color="#0465F6" stop-opacity="0.3"/>
<stop offset="1" stop-color="white" stop-opacity="0"/>
</linearGradient>
<linearGradient id="paint4_linear_206_2" x1="213.014" y1="240.35" x2="283.881" y2="199.435" gradientUnits="userSpaceOnUse">
<stop stop-color="#0566F6" stop-opacity="0.67"/>
<stop offset="1" stop-color="white" stop-opacity="0"/>
</linearGradient>
<linearGradient id="paint5_linear_206_2" x1="332.56" y1="171.33" x2="403.426" y2="130.415" gradientUnits="userSpaceOnUse">
<stop stop-color="#0566F6" stop-opacity="0.67"/>
<stop offset="1" stop-color="white" stop-opacity="0"/>
</linearGradient>
<linearGradient id="paint6_linear_206_2" x1="367.069" y1="231.103" x2="437.936" y2="190.188" gradientUnits="userSpaceOnUse">
<stop stop-color="#0566F6" stop-opacity="0.67"/>
<stop offset="1" stop-color="white" stop-opacity="0"/>
</linearGradient>
<linearGradient id="paint7_linear_206_2" x1="-34.3446" y1="-51.7647" x2="0.165213" y2="8.00806" gradientUnits="userSpaceOnUse">
<stop stop-color="#0465F6" stop-opacity="0.3"/>
<stop offset="1" stop-color="white" stop-opacity="0"/>
</linearGradient>
<linearGradient id="paint8_linear_206_2" x1="34.6749" y1="67.7807" x2="69.1847" y2="127.553" gradientUnits="userSpaceOnUse">
<stop stop-color="#0465F6" stop-opacity="0.3"/>
<stop offset="1" stop-color="white" stop-opacity="0"/>
</linearGradient>
<linearGradient id="paint9_linear_206_2" x1="94.4474" y1="33.271" x2="128.957" y2="93.0437" gradientUnits="userSpaceOnUse">
<stop stop-color="#0465F6" stop-opacity="0.3"/>
<stop offset="1" stop-color="white" stop-opacity="0"/>
</linearGradient>
<linearGradient id="paint10_linear_206_2" x1="-30.1236" y1="102.475" x2="40.7433" y2="61.5601" gradientUnits="userSpaceOnUse">
<stop stop-color="#0566F6" stop-opacity="0.67"/>
<stop offset="1" stop-color="white" stop-opacity="0"/>
</linearGradient>
<linearGradient id="paint11_linear_206_2" x1="-64.6334" y1="42.7022" x2="6.23355" y2="1.7872" gradientUnits="userSpaceOnUse">
<stop stop-color="#0566F6" stop-opacity="0.67"/>
<stop offset="1" stop-color="white" stop-opacity="0"/>
</linearGradient>
<linearGradient id="paint12_linear_206_2" x1="54.9125" y1="-26.3173" x2="125.779" y2="-67.2323" gradientUnits="userSpaceOnUse">
<stop stop-color="#0566F6" stop-opacity="0.67"/>
<stop offset="1" stop-color="white" stop-opacity="0"/>
</linearGradient>
<linearGradient id="paint13_linear_206_2" x1="89.4223" y1="33.4556" x2="160.289" y2="-7.45939" gradientUnits="userSpaceOnUse">
<stop stop-color="#0566F6" stop-opacity="0.67"/>
<stop offset="1" stop-color="white" stop-opacity="0"/>
</linearGradient>
</defs>
</svg>
